<svg xmlns="http://www.w3.org/2000/svg" width="232.833" height="42.829" viewBox="0 0 232.833 42.829">
  <g id="decoration_3" data-name="decoration 3" transform="translate(-25.207 -225.52)">
    <rect id="Rectangle_1" data-name="Rectangle 1" width="3.984" height="3.999" transform="translate(138.976 236.723) rotate(-45)" fill="none" stroke="#1a1818" stroke-miterlimit="10" stroke-width="1.597"/>
    <rect id="Rectangle_2" data-name="Rectangle 2" width="8.582" height="8.616" transform="translate(135.725 256.712) rotate(-45)" fill="none" stroke="#1a1818" stroke-miterlimit="10" stroke-width="1.597"/>
    <path id="Path_23" data-name="Path 23" d="M257.242,247.822H233.157l-2.346-2.355-6.6,6.626-4.2-4.212-1.972,1.979,1.912,1.92,3.813-3.827-3.944-3.959-3.812,3.828H173.218l-6.184,6.208L140.015,226.9a1.987,1.987,0,0,0-2.817,0l-6.758,6.785,20.39,20.469,5.776-5.8-5.691-5.713-3.381,3.4,7.272,7.3,3.719,3.734,5.772-5.795,5.772-5.795-5.772-5.794-2.639-2.65-2.784,2.795,5.553,5.649-11.4,11.447-9.993,10.032a1.987,1.987,0,0,1-2.817,0l-9.993-10.032-11.4-11.447,5.553-5.649-2.784-2.795-2.639,2.65-5.772,5.794,5.772,5.795,5.772,5.795,3.719-3.734,7.272-7.3-3.381-3.4-5.691,5.713,5.776,5.8,20.39-20.469-6.758-6.785a1.987,1.987,0,0,0-2.817,0l-27.018,27.124-6.184-6.208H67.235l-3.812-3.828-3.944,3.959,3.813,3.827,1.912-1.92-1.972-1.979-4.2,4.212-6.6-6.626-2.346,2.355H26" fill="none" stroke="#1a1818" stroke-linecap="round" stroke-miterlimit="10" stroke-width="1.597"/>
  </g>
</svg>
