<svg xmlns="http://www.w3.org/2000/svg" width="248.571" height="23.959" viewBox="0 0 248.571 23.959">
  <g id="Divider" transform="translate(-974.214 -2705.02)">
    <g id="Divider-2" data-name="Divider" transform="translate(959.772 2371.758)">
      <g id="decoration_4" data-name="decoration 4">
        <line id="Line_29" data-name="Line 29" x1="59.345" transform="translate(15.228 348.928)" fill="none" stroke="#1a1818" stroke-linecap="round" stroke-miterlimit="10" stroke-width="1.571"/>
        <line id="Line_30" data-name="Line 30" x2="59.345" transform="translate(202.883 348.928)" fill="none" stroke="#1a1818" stroke-linecap="round" stroke-miterlimit="10" stroke-width="1.571"/>
        <path id="Path_15" data-name="Path 15" d="M74.574,348.928l34.957,0a1.533,1.533,0,0,0,1.111-.484l4.527-4.759a1.518,1.518,0,0,1,2.222,0l11.649,12.246a1.518,1.518,0,0,0,2.222,0l5.831-6.13a1.712,1.712,0,0,0,0-2.336l-3.723-3.914a1.518,1.518,0,0,0-2.222,0l-3.474,3.652a1.713,1.713,0,0,0,0,2.336l1.039,1.092a1.518,1.518,0,0,0,2.222,0l1.113-1.17a1.713,1.713,0,0,0,0-2.336l-3.709-3.9-2.557-2.688a1.517,1.517,0,0,0-2.222,0l-4.581,4.816-2.575,2.707a1.712,1.712,0,0,0,.008,2.345l.564.584a1.518,1.518,0,0,0,2.214-.009l10.9-11.464,4.725-4.967a1.518,1.518,0,0,1,2.222,0l4.256,4.475a1.712,1.712,0,0,1,0,2.336l-2.57,2.7-2.57-2.7a1.712,1.712,0,0,1,0-2.336l4.256-4.475a1.518,1.518,0,0,1,2.222,0l4.725,4.967,10.9,11.464a1.517,1.517,0,0,0,2.214.009l.564-.584a1.712,1.712,0,0,0,.008-2.345l-2.575-2.707L153.9,340.54a1.517,1.517,0,0,0-2.222,0l-2.557,2.688-3.709,3.9a1.712,1.712,0,0,0,0,2.336l1.112,1.17a1.518,1.518,0,0,0,2.222,0l1.039-1.092a1.712,1.712,0,0,0,0-2.336l-3.474-3.652a1.518,1.518,0,0,0-2.222,0l-3.723,3.914a1.713,1.713,0,0,0,0,2.336l5.831,6.13a1.518,1.518,0,0,0,2.222,0l11.649-12.246a1.518,1.518,0,0,1,2.222,0l4.527,4.759a1.533,1.533,0,0,0,1.111.484l34.957,0" fill="none" stroke="#1a1818" stroke-linecap="round" stroke-miterlimit="10" stroke-width="1.611"/>
      </g>
    </g>
    <path id="Color_Overlay" data-name="Color Overlay" d="M1105.966,2727.69l-5.832-6.131a1.677,1.677,0,0,1-.435-.874h5.141a1.713,1.713,0,0,1,.34-1.8l2.15-2.26-1.25-1.315a1.518,1.518,0,0,0-2.223,0l-3.723,3.914a1.706,1.706,0,0,0-.435,1.462h-2.4a1.706,1.706,0,0,0-.436-1.462l-3.723-3.914a1.517,1.517,0,0,0-2.222,0l-1.251,1.315,2.15,2.26a1.714,1.714,0,0,1,.34,1.8h5.142a1.671,1.671,0,0,1-.436.874l-5.831,6.131a1.52,1.52,0,0,1-2.223,0l-6.663-7h4.928a1.712,1.712,0,0,1,.369-1.724l2.223-2.337-1.559-1.639-.886-.932,2.642-2.777,4.724-4.966a1.518,1.518,0,0,1,2.223,0l1.687,1.773,1.686-1.773a1.518,1.518,0,0,1,2.223,0l4.724,4.966,2.642,2.778-.886.931-1.56,1.639,2.224,2.337a1.714,1.714,0,0,1,.369,1.724h4.928l-6.664,7a1.519,1.519,0,0,1-2.222,0Zm12.073-4.951-1.954-2.054h5.174a1.679,1.679,0,0,0-.434-.866l-2.575-2.707,1.588-1.668a1.517,1.517,0,0,1,2.222,0l4.527,4.759a1.535,1.535,0,0,0,1.06.482h-6.388a1.707,1.707,0,0,1-.443,1.479l-.563.584a1.517,1.517,0,0,1-2.214-.009Zm-41.291.009-.563-.584a1.7,1.7,0,0,1-.443-1.479h-6.387a1.534,1.534,0,0,0,1.059-.482l4.528-4.759a1.517,1.517,0,0,1,2.222,0l1.588,1.668-2.575,2.707a1.68,1.68,0,0,0-.435.866h5.174l-1.954,2.054a1.517,1.517,0,0,1-2.214.009Zm50.9-2.063h0Zm-93.3,0H1069.3Zm128.309,0H1222Zm-47.8,0,.616-.648-5.693-5.983,1.671-1.757a1.516,1.516,0,0,1,2.222,0l4.581,4.815-2.782,2.925.616.648Zm-33.936,0,.617-.649-2.781-2.924,4.58-4.815a1.517,1.517,0,0,1,2.223,0l1.67,1.756-5.693,5.983.617.649Zm-105.916,0h59.346Z" fill="#c90"/>
  </g>
</svg>
